#Comment line ignore any data following # character 
#Hierarchical Translation and Rotation (.htr) file 
[Header]	
#Header keywords are followed by a single value 
FileType HTR		#Single word string
DataType HTRS		#Translation followed by rotation and scale data
FileVersion 1		#integer
NumSegments 25		#integer
NumFrames 4		#integer
DataFrameRate 30		#integer, data frame rate in this file
EulerRotationOrder ZYX
CalibrationUnits mm
RotationUnits Degrees
GlobalAxisofGravity Y
BoneLengthAxis Y
ScaleFactor 1.00
[SegmentNames&Hierarchy]
#CHILD	PARENT
BN_Tick_Root GLOBAL
BN_Torso BN_Tick_Root
BN_L_Leg_Front01 BN_Torso
BN_L_Leg_Rear01 BN_Torso
BN_MetalTop BN_Torso
BN_Neck BN_Torso
BN_R_Leg_Front01 BN_Torso
BN_R_Leg_Rear01 BN_Torso
BN_Sack BN_Torso
BN_L_Leg_Front02 BN_L_Leg_Front01
BN_L_Leg_Front03 BN_L_Leg_Front02
BN_L_Leg_Rear02 BN_L_Leg_Rear01
BN_L_Leg_Rear03 BN_L_Leg_Rear02
BN_Head BN_Neck
BN_Needle BN_Head
BN_R_Leg_Front02 BN_R_Leg_Front01
BN_R_Leg_Front03 BN_R_Leg_Front02
BN_R_Leg_Rear02 BN_R_Leg_Rear01
BN_R_Leg_Rear03 BN_R_Leg_Rear02
BN_SackDef01 BN_Sack
BN_SackDef02 BN_Sack
BN_SackDef03 BN_Sack
BN_SackDef04 BN_Sack
BN_SackDef05 BN_Sack
BN_SackDef06 BN_Sack
[BasePosition]
#SegmentName Tx, Ty, Tz, Rx, Ry, Rz, BoneLength
BN_Tick_Root 0.000000 0.000000 0.000000 -90.000000 0.000000 0.000000 10.000000 
BN_Torso 0.000000 0.000000 0.000000 0.000000 0.000000 0.000000 10.000000 
BN_L_Leg_Front01 0.000000 0.000000 0.000000 0.000000 0.000000 0.000000 10.000000 
BN_L_Leg_Rear01 0.000000 0.000000 0.000000 0.000000 0.000000 0.000000 10.000000 
BN_MetalTop 0.000000 0.000000 0.000000 0.000000 0.000000 0.000000 10.000000 
BN_Neck 0.000000 0.000000 0.000000 0.000000 0.000000 0.000000 10.000000 
BN_R_Leg_Front01 0.000000 0.000000 0.000000 0.000000 0.000000 0.000000 10.000000 
BN_R_Leg_Rear01 0.000000 0.000000 0.000000 0.000000 0.000000 0.000000 10.000000 
BN_Sack 0.000000 0.000000 0.000000 0.000000 0.000000 0.000000 10.000000 
BN_L_Leg_Front02 0.000000 0.000000 0.000000 0.000000 0.000000 0.000000 10.000000 
BN_L_Leg_Front03 0.000000 0.000000 0.000000 0.000000 0.000000 0.000000 10.000000 
BN_L_Leg_Rear02 0.000000 0.000000 0.000000 0.000000 0.000000 0.000000 10.000000 
BN_L_Leg_Rear03 0.000000 0.000000 0.000000 0.000000 0.000000 0.000000 10.000000 
BN_Head 0.000000 0.000000 0.000000 0.000000 0.000000 0.000000 10.000000 
BN_Needle 0.000000 0.000000 0.000000 0.000000 0.000000 0.000000 10.000000 
BN_R_Leg_Front02 0.000000 0.000000 0.000000 0.000000 0.000000 0.000000 10.000000 
BN_R_Leg_Front03 0.000000 0.000000 0.000000 0.000000 0.000000 0.000000 10.000000 
BN_R_Leg_Rear02 0.000000 0.000000 0.000000 0.000000 0.000000 0.000000 10.000000 
BN_R_Leg_Rear03 0.000000 0.000000 0.000000 0.000000 0.000000 0.000000 10.000000 
BN_SackDef01 0.000000 0.000000 0.000000 0.000000 0.000000 0.000000 10.000000 
BN_SackDef02 0.000000 0.000000 0.000000 0.000000 0.000000 0.000000 10.000000 
BN_SackDef03 0.000000 0.000000 0.000000 0.000000 0.000000 0.000000 10.000000 
BN_SackDef04 0.000000 0.000000 0.000000 0.000000 0.000000 0.000000 10.000000 
BN_SackDef05 0.000000 0.000000 0.000000 0.000000 0.000000 0.000000 10.000000 
BN_SackDef06 0.000000 0.000000 0.000000 0.000000 0.000000 0.000000 10.000000 
#Beginning of Data. Separated by tabs
#Fr	Tx	Ty	Tz	Rx	Ry	Rz	SF
[BN_Tick_Root]
79 -466.528778 1126.897217 -0.000042 0.000000 0.000000 -29.576614 1219.650146
80 -464.240082 1167.044434 -0.000043 0.000000 0.000000 -29.548506 1255.990234
81 -461.657379 1210.472412 -0.000043 0.000000 0.000000 -29.469685 1295.519653
82 -458.770477 1257.679077 -0.000044 0.000000 0.000000 -29.390858 1338.740845
[BN_Torso]
79 -51.088715 110.540329 213.799225 0.001657 0.001662 -0.176389 246.047424
80 -60.217010 127.674866 213.799149 0.001660 0.001660 -0.005760 256.197266
81 -67.841530 141.877838 213.799103 0.001662 0.001657 0.164865 265.408844
82 -73.837952 152.661179 213.798904 0.001664 0.001656 0.288507 272.887268
[BN_L_Leg_Front01]
79 -68.477791 10.734189 -26.804373 -51.815159 43.943100 169.239304 74.316254
80 -68.477791 10.734189 -26.804373 -54.055653 35.109749 168.059113 74.316254
81 -68.477791 10.734189 -26.804373 -52.663071 40.872513 170.737640 74.316254
82 -68.477791 10.734189 -26.804373 -50.135876 49.207714 174.331421 74.316254
[BN_L_Leg_Rear01]
79 -72.133743 -73.994843 -18.268616 66.128891 34.564529 -106.619896 104.939293
80 -72.133743 -73.994843 -18.268616 65.314674 40.308895 -104.020538 104.939293
81 -72.133743 -73.994843 -18.268616 66.182411 34.183945 -100.632942 104.939293
82 -72.133743 -73.994843 -18.268616 66.934479 27.967775 -97.609192 104.939293
[BN_MetalTop]
79 0.000008 13.737477 26.403606 89.998573 -12.929121 -90.001572 29.763546
80 0.000008 13.737477 26.403606 89.998573 -12.929121 -90.001572 29.763546
81 0.000008 13.737477 26.403606 89.998573 -12.929121 -90.001572 29.763546
82 0.000008 13.737477 26.403606 89.998573 -12.929121 -90.001572 29.763546
[BN_Neck]
79 0.000014 95.233284 10.002091 -74.437347 -77.374771 71.624672 95.757088
80 0.000014 95.233284 10.002091 -71.210243 -77.423409 68.179466 95.757088
81 0.000014 95.233284 10.002091 -81.955185 -73.175339 79.935318 95.757088
82 0.000014 95.233284 10.002091 -90.003761 -65.297806 90.002563 95.757088
[BN_R_Leg_Front01]
79 68.477768 10.734107 -26.804314 54.343952 33.819660 25.531738 74.316193
80 68.477768 10.734107 -26.804314 51.476406 45.115337 26.329170 74.316193
81 68.477768 10.734107 -26.804314 47.843166 54.916821 26.450188 74.316193
82 68.477768 10.734107 -26.804314 50.202290 49.034653 31.536238 74.316193
[BN_R_Leg_Rear01]
79 72.133751 -73.994873 -18.268644 -65.352058 40.087315 -13.511068 104.939331
80 72.133751 -73.994873 -18.268644 -66.399773 32.431683 -10.501736 104.939331
81 72.133751 -73.994873 -18.268644 -65.835052 36.746624 -6.835903 104.939331
82 72.133751 -73.994873 -18.268644 -64.842072 43.244865 -3.135413 104.939331
[BN_Sack]
79 -0.000000 -78.024918 33.657791 92.275040 -7.196946 -89.946892 84.974907
80 -0.000000 -78.024918 33.657791 92.642235 -8.690969 -90.026825 84.974907
81 -0.000000 -78.024918 33.657791 93.329651 -10.754801 -90.149635 84.974907
82 -0.000000 -78.024918 33.657791 93.851685 -12.408599 -90.259995 84.974907
[BN_L_Leg_Front02]
79 142.805023 -0.000015 -0.000104 -0.610129 -5.148568 -115.106300 142.805023
80 142.805023 -0.000015 -0.000104 -0.608828 -8.961888 -118.905563 142.805023
81 142.805023 -0.000015 -0.000104 -1.050852 -6.211840 -111.777275 142.805023
82 142.805023 -0.000015 -0.000104 0.170251 0.353810 -98.438774 142.805023
[BN_L_Leg_Front03]
79 124.143021 -0.000045 0.000007 0.353668 -0.373417 123.590500 124.143021
80 124.143021 -0.000045 0.000007 0.353793 -0.361372 126.904709 124.143021
81 124.143021 -0.000045 0.000007 0.353613 -0.386607 120.555176 124.143021
82 124.143021 -0.000045 0.000007 0.352090 -0.430577 106.891365 124.143021
[BN_L_Leg_Rear02]
79 139.939041 0.000075 -0.000022 3.554149 -3.824064 68.931389 139.939041
80 139.939041 0.000075 -0.000022 0.194085 -0.133937 55.567341 139.939041
81 139.939041 0.000075 -0.000022 3.691113 -2.710627 57.343296 139.939041
82 139.939041 0.000075 -0.000022 6.033919 -4.300930 56.449997 139.939041
[BN_L_Leg_Rear03]
79 142.839615 0.000179 -0.000060 0.000213 0.002337 -79.582985 142.839615
80 142.839615 0.000179 -0.000060 0.000627 0.002262 -59.035450 142.839615
81 142.839615 0.000179 -0.000060 0.000569 0.002277 -61.960896 142.839615
82 142.839615 0.000179 -0.000060 0.000592 0.002271 -60.781990 142.839615
[BN_Head]
79 57.062447 -0.000030 0.000000 -2.313000 3.970065 -12.441978 57.062447
80 57.062447 -0.000030 0.000000 -2.474268 4.684508 -12.745230 57.062447
81 57.062447 -0.000030 0.000000 -1.546297 2.928740 -7.965616 57.062447
82 57.062447 -0.000030 0.000000 0.001650 0.001683 0.001599 57.062447
[BN_Needle]
79 33.915276 69.677681 -0.000013 0.000003 0.000030 87.896805 77.493385
80 33.915276 69.677681 -0.000012 0.000003 0.000030 87.896805 77.493385
81 33.915276 69.677681 -0.000012 0.000003 0.000030 87.896805 77.493385
82 33.915276 69.677681 -0.000011 0.000003 0.000030 87.896805 77.493385
[BN_R_Leg_Front02]
79 142.804947 -0.000060 0.000060 -1.897887 -10.331628 136.962296 142.804947
80 142.804947 -0.000060 0.000060 -0.508465 -6.245227 129.245560 142.804947
81 142.804947 -0.000060 0.000060 -0.100822 0.556599 117.102966 142.804947
82 142.804947 -0.000060 0.000060 -1.069110 -5.240923 137.565826 142.804947
[BN_R_Leg_Front03]
79 124.143005 -0.000060 -0.000156 -0.355147 -0.288780 -140.224487 124.143005
80 124.143005 -0.000060 -0.000156 -0.353721 -0.315696 -135.020660 124.143005
81 124.143005 -0.000060 -0.000156 -0.353504 -0.364809 -125.377533 124.143005
82 124.143005 -0.000060 -0.000156 -0.352224 -0.285666 -140.723862 124.143005
[BN_R_Leg_Rear02]
79 139.939011 -0.000149 0.000015 -0.094047 -0.215921 -90.216125 139.939011
80 139.939011 -0.000149 0.000015 -1.733217 -4.309127 -92.500099 139.939011
81 139.939011 -0.000149 0.000015 -3.655211 -6.495191 -83.890427 139.939011
82 139.939011 -0.000149 0.000015 -3.563508 -4.073326 -70.817200 139.939011
[BN_R_Leg_Rear03]
79 142.839417 0.000075 0.000119 0.002318 -0.000369 108.064987 142.839417
80 142.839417 0.000075 0.000119 0.002308 -0.000425 110.863686 142.839417
81 142.839417 0.000075 0.000119 0.002338 -0.000213 100.400208 142.839417
82 142.839417 0.000075 0.000119 0.002342 0.000157 82.337708 142.839417
[BN_SackDef01]
79 249.782272 -3.760844 42.949425 -128.408218 -44.374973 -11.740845 253.475800
80 249.782272 -3.760844 42.949425 -128.408218 -44.374973 -11.740845 253.475800
81 249.782272 -3.760844 42.949425 -128.408218 -44.374973 -11.740845 253.475800
82 249.782272 -3.760844 42.949425 -128.408218 -44.374973 -11.740845 253.475800
[BN_SackDef02]
79 138.789795 -62.131748 45.674385 32.077126 -27.375721 -88.781525 158.773758
80 138.789795 -62.131748 45.674385 32.077126 -27.375721 -88.781525 158.773758
81 138.789795 -62.131748 45.674385 32.077126 -27.375721 -88.781525 158.773758
82 138.789795 -62.131748 45.674385 32.077126 -27.375721 -88.781525 158.773758
[BN_SackDef03]
79 249.782272 -3.760785 -42.949661 18.144459 44.375008 -11.740894 253.475845
80 249.782272 -3.760785 -42.949661 18.144459 44.375008 -11.740894 253.475845
81 249.782272 -3.760785 -42.949661 18.144459 44.375008 -11.740894 253.475845
82 249.782272 -3.760785 -42.949661 18.144459 44.375008 -11.740894 253.475845
[BN_SackDef04]
79 138.789780 -62.131645 -45.674473 146.059982 27.375723 -88.781555 158.773743
80 138.789780 -62.131645 -45.674473 146.059982 27.375723 -88.781555 158.773743
81 138.789780 -62.131645 -45.674473 146.059982 27.375723 -88.781555 158.773743
82 138.789780 -62.131645 -45.674473 146.059982 27.375723 -88.781555 158.773743
[BN_SackDef05]
79 118.790161 46.167137 -63.831196 0.155741 51.314110 90.605110 142.537460
80 118.790161 46.167137 -63.831196 0.155741 51.314110 90.605110 142.537460
81 118.790161 46.167137 -63.831196 0.155741 51.314110 90.605110 142.537460
82 118.790161 46.167137 -63.831196 0.155741 51.314110 90.605110 142.537460
[BN_SackDef06]
79 118.790207 46.167194 63.831219 152.058487 -51.314072 90.605019 142.537537
80 118.790207 46.167194 63.831219 152.058487 -51.314072 90.605019 142.537537
81 118.790207 46.167194 63.831219 152.058487 -51.314072 90.605019 142.537537
82 118.790207 46.167194 63.831219 152.058487 -51.314072 90.605019 142.537537
